<svg id="Layer_1" xmlns="http://www.w3.org/2000/svg" viewBox="0 0 1270 327"><text transform="translate(3.294 246.217)" font-family="'Helvetica'" font-size="146.905">ChampsélyséesED</text><path fill="#FF2B06" d="M12.9 295.3l-7.6-10.9h7.2l4.1 6 4-6h7L20 295.2l8.5 12.2h-7.2l-4.8-7.3-4.8 7.3h-7l8.2-12.1z"/><path d="M58.5 293.8H36V289h22.5v4.8zm0 9.5H36v-4.8h22.5v4.8zM75.7 280.9h-6.3v-5.2h6.3v5.2zm-6.3 3.5h6.3v23h-6.3v-23zM79.8 284.4h6v3.2h.2c1.6-2.6 4.4-3.8 7-3.8 6.7 0 8.4 3.8 8.4 9.5v14.2h-6.3v-13c0-3.8-1.1-5.7-4.1-5.7-3.4 0-4.9 1.9-4.9 6.6v12.1h-6.3v-23.1zM121.8 304.5c-1.6 2.5-4.1 3.6-7.1 3.6-6.9 0-10.3-6-10.3-12.3 0-6.2 3.4-11.9 10.2-11.9 2.7 0 5.4 1.2 6.9 3.4h.1v-11.6h6.3v31.8h-6v-3zm-5.6-15.9c-4.1 0-5.6 3.6-5.6 7.3 0 3.6 1.6 7.4 5.6 7.4 4.2 0 5.4-3.6 5.4-7.4.1-3.8-1.3-7.3-5.4-7.3zM136.8 297.5c.2 4 2.1 5.8 5.7 5.8 2.5 0 4.6-1.6 5-3h5.6c-1.8 5.4-5.6 7.7-10.8 7.7-7.3 0-11.8-5-11.8-12.1 0-6.9 4.8-12.2 11.8-12.2 7.8 0 11.6 6.6 11.2 13.7h-16.7zm10.3-4c-.6-3.2-2-4.9-5-4.9-4 0-5.2 3.1-5.3 4.9h10.3zM156.3 284.4h6v2.9h.1c1.5-2.4 4-3.6 6.9-3.6 7.2 0 10.5 5.8 10.5 12.4 0 6.1-3.4 11.9-10.1 11.9-2.8 0-5.4-1.2-6.9-3.5h-.1v10.9h-6.3v-31zm17.1 11.6c0-3.6-1.5-7.4-5.5-7.4-4.1 0-5.5 3.7-5.5 7.4s1.4 7.3 5.5 7.3 5.5-3.6 5.5-7.3zM187.8 297.5c.2 4 2.1 5.8 5.7 5.8 2.5 0 4.6-1.6 5-3h5.6c-1.8 5.4-5.6 7.7-10.8 7.7-7.3 0-11.8-5-11.8-12.1 0-6.9 4.8-12.2 11.8-12.2 7.8 0 11.6 6.6 11.2 13.7h-16.7zm10.3-4c-.6-3.2-2-4.9-5-4.9-4 0-5.2 3.1-5.3 4.9h10.3zM207.2 284.4h6v3.2h.1c1.6-2.6 4.4-3.8 7-3.8 6.7 0 8.4 3.8 8.4 9.5v14.2h-6.3v-13c0-3.8-1.1-5.7-4.1-5.7-3.4 0-4.9 1.9-4.9 6.6v12.1h-6.3v-23.1zM249.2 304.5c-1.6 2.5-4.1 3.6-7.1 3.6-6.9 0-10.3-6-10.3-12.3 0-6.2 3.4-11.9 10.2-11.9 2.7 0 5.4 1.2 6.9 3.4h.1v-11.6h6.3v31.8h-6v-3zm-5.5-15.9c-4.1 0-5.6 3.6-5.6 7.3 0 3.6 1.6 7.4 5.6 7.4 4.2 0 5.4-3.6 5.4-7.4 0-3.8-1.4-7.3-5.4-7.3zM264.3 297.5c.2 4 2.1 5.8 5.7 5.8 2.5 0 4.6-1.6 5-3h5.6c-1.8 5.4-5.6 7.7-10.8 7.7-7.3 0-11.8-5-11.8-12.1 0-6.9 4.8-12.2 11.8-12.2 7.8 0 11.6 6.6 11.2 13.7h-16.7zm10.2-4c-.6-3.2-2-4.9-5-4.9-4 0-5.2 3.1-5.3 4.9h10.3zM283.7 284.4h6v3.2h.1c1.6-2.6 4.4-3.8 7-3.8 6.7 0 8.4 3.8 8.4 9.5v14.2H299v-13c0-3.8-1.1-5.7-4.1-5.7-3.4 0-4.9 1.9-4.9 6.6v12.1h-6.3v-23.1zM317.2 284.4h4.6v4.2h-4.6V300c0 2.1.5 2.7 2.7 2.7.7 0 1.3 0 2-.2v4.9c-1.1.2-2.4.2-3.7.2-3.9 0-7.3-.9-7.3-5.5v-13.6h-3.8v-4.2h3.8v-6.9h6.3v7zM324.2 275.6h6.3v31.8h-6.3v-31.8zM345.9 310.3c-1.4 3.7-3.6 5.2-7.9 5.2-1.3 0-2.6-.1-3.9-.2v-5.2c1.2.1 2.4.3 3.7.2 2.2-.2 2.9-2.5 2.2-4.3l-8.1-21.6h6.8l5.2 15.8h.1l5-15.8h6.5l-9.6 25.9zM379.4 283.8c7.3 0 11.9 4.8 11.9 12.2 0 7.3-4.7 12.1-11.9 12.1s-11.9-4.8-11.9-12.1c.1-7.4 4.7-12.2 11.9-12.2zm0 19.5c4.3 0 5.6-3.7 5.6-7.3 0-3.7-1.3-7.4-5.6-7.4s-5.6 3.7-5.6 7.4c.1 3.6 1.4 7.3 5.6 7.3zM393.7 284.4h6v4.3h.1c1.2-2.9 4.3-4.9 7.3-4.9.4 0 1 .1 1.4.2v5.9c-.6-.1-1.5-.2-2.3-.2-4.6 0-6.2 3.3-6.2 7.4v10.4h-6.3v-23.1zM432.2 306c0 3.8-1.3 10.2-11.9 10.2-4.5 0-9.8-2.1-10.1-7.4h6.3c.6 2.4 2.5 3.2 4.7 3.2 3.5 0 5.1-2.4 5.1-5.7v-3h-.1c-1.4 2.4-4.1 3.6-6.9 3.6-6.9 0-9.8-5.3-9.8-11.6 0-6 3.4-11.4 9.9-11.4 3 0 5.3 1 6.9 3.7h.1v-3.1h6V306zm-6-10.4c0-3.7-1.3-7.1-5.4-7.1-3.6 0-5.1 3.1-5.1 6.5 0 3.3 1.2 6.9 5.1 6.9 3.6.1 5.4-3 5.4-6.3zM435.3 291.5c.4-5.9 5.7-7.7 10.8-7.7 4.6 0 10.1 1 10.1 6.5v12c0 2.1.2 4.2.8 5.1h-6.4c-.2-.7-.4-1.5-.4-2.2-2 2.1-4.9 2.8-7.7 2.8-4.4 0-7.8-2.2-7.8-6.9 0-5.2 3.9-6.5 7.8-7 3.9-.6 7.5-.4 7.5-3 0-2.7-1.9-3.1-4.1-3.1-2.4 0-4 1-4.2 3.5h-6.4zm14.6 4.7c-1.1.9-3.3 1-5.3 1.3-2 .4-3.7 1.1-3.7 3.4 0 2.4 1.8 2.9 3.9 2.9 4.9 0 5.1-3.9 5.1-5.3v-2.3zM460.2 284.4h6v3.2h.1c1.6-2.6 4.4-3.8 7-3.8 6.7 0 8.4 3.8 8.4 9.5v14.2h-6.3v-13c0-3.8-1.1-5.7-4.1-5.7-3.4 0-4.9 1.9-4.9 6.6v12.1h-6.3v-23.1zM491.3 280.9H485v-5.2h6.3v5.2zm-6.3 3.5h6.3v23H485v-23zM494 302.7l12-13.5h-11.1v-4.8h19.4v4.8l-12 13.5h12.8v4.8H494v-4.8zM522.8 297.5c.2 4 2.1 5.8 5.7 5.8 2.5 0 4.6-1.6 5-3h5.6c-1.8 5.4-5.6 7.7-10.8 7.7-7.3 0-11.8-5-11.8-12.1 0-6.9 4.8-12.2 11.8-12.2 7.8 0 11.6 6.6 11.2 13.7h-16.7zm10.3-4c-.6-3.2-2-4.9-5-4.9-4 0-5.2 3.1-5.3 4.9h10.3zM558.7 304.5c-1.6 2.5-4.1 3.6-7.1 3.6-6.9 0-10.3-6-10.3-12.3 0-6.2 3.4-11.9 10.2-11.9 2.7 0 5.4 1.2 6.9 3.4h.1v-11.6h6.3v31.8h-6v-3zm-5.5-15.9c-4.1 0-5.6 3.6-5.6 7.3 0 3.6 1.6 7.4 5.6 7.4 4.2 0 5.4-3.6 5.4-7.4 0-3.8-1.4-7.3-5.4-7.3zM587.7 281.5h-9.5v-5.9h26v5.9h-9.5v25.9h-7v-25.9zM607 275.6h23.8v5.9H614v6.8h15.4v5.4H614v7.8h17.1v5.9H607v-31.8zM634.1 275.6h13.7c8.2 0 14.4 5.2 14.4 15.7 0 9.2-4.7 16.1-14.4 16.1h-13.7v-31.8zm7 26h6.2c4 0 7.9-2.5 7.9-9.5 0-6.4-2.2-10.5-9.2-10.5h-5v20zM682.2 297.5c.2 4 2.1 5.8 5.7 5.8 2.5 0 4.6-1.6 5-3h5.6c-1.8 5.4-5.6 7.7-10.8 7.7-7.3 0-11.8-5-11.8-12.1 0-6.9 4.8-12.2 11.8-12.2 7.8 0 11.6 6.6 11.2 13.7h-16.7zm10.3-4c-.6-3.2-2-4.9-5-4.9-4 0-5.2 3.1-5.3 4.9h10.3zM713.5 307.4h-7l-7.9-23h6.6l4.9 15.7h.1l4.9-15.7h6.3l-7.9 23zM727.3 297.5c.2 4 2.1 5.8 5.7 5.8 2.5 0 4.6-1.6 5-3h5.6c-1.8 5.4-5.6 7.7-10.8 7.7-7.3 0-11.8-5-11.8-12.1 0-6.9 4.8-12.2 11.8-12.2 7.8 0 11.6 6.6 11.2 13.7h-16.7zm10.3-4c-.6-3.2-2-4.9-5-4.9-4 0-5.2 3.1-5.3 4.9h10.3zM746.8 284.4h6v3.2h.1c1.6-2.6 4.4-3.8 7-3.8 6.7 0 8.4 3.8 8.4 9.5v14.2H762v-13c0-3.8-1.1-5.7-4.1-5.7-3.4 0-4.9 1.9-4.9 6.6v12.1h-6.3v-23.1zM780.3 284.4h4.6v4.2h-4.6V300c0 2.1.5 2.7 2.7 2.7.7 0 1.3 0 2-.2v4.9c-1.1.2-2.4.2-3.7.2-3.9 0-7.3-.9-7.3-5.5v-13.6h-3.8v-4.2h3.8v-6.9h6.3v7z"/><g><g fill="#FF2B06"><path d="M32 35H2.3V7.9h91.9V35H64.6v78.7H32V35zM99.3 7.9h89.2V35h-56.6v13.2h56.6v25.2h-56.6v13.2h56.6v27.1H99.3V7.9zM193.9 7.9h53.5c35.3 0 47.7 26.1 47.7 52.8 0 32.5-17.2 53.1-54.1 53.1h-47.1V7.9zm32.6 78.7h12.8c20.3 0 23.3-16.5 23.3-26.4 0-6.7-2.1-25.2-25.7-25.2h-10.4v51.6z"/></g><path fill="#FF2B06" d="M342 72.9l-9.9-16.5-9.7 16.5h-23.9l22.7-33.3-21.9-31.9h23.9l8.8 15.8 9.1-15.8H365l-21.8 31.9 22.7 33.3H342z"/></g></svg>